<svg width="688" height="723" viewBox="0 0 688 723" fill="none" xmlns="http://www.w3.org/2000/svg">
<path d="M650.862 521.098C690.311 440.923 698.669 348.979 674.323 263.005C649.978 177.032 594.654 103.121 519.026 55.5327C443.398 7.94479 352.825 -9.94774 264.783 5.30729C176.74 20.5623 97.4672 67.8839 42.2583 138.142C-12.9507 208.4 -40.183 296.615 -34.1845 385.768C-28.1861 474.921 10.6181 558.693 74.7411 620.922C138.864 683.151 223.762 719.426 313.054 722.75C402.347 726.073 489.706 696.209 558.278 638.919L535.511 611.669C473.675 663.332 394.897 690.263 314.375 687.266C233.854 684.269 157.295 651.556 99.4704 595.44C41.6459 539.323 6.65337 463.78 1.24411 383.384C-4.16514 302.989 20.3923 223.438 70.1782 160.081C119.964 96.7246 191.451 54.0513 270.845 40.2947C350.24 26.5381 431.916 42.6731 500.115 85.5867C568.314 128.5 618.204 195.151 640.158 272.68C662.112 350.209 654.575 433.122 619.001 505.421L650.862 521.098Z" fill="url(#paint0_linear_1727_422)"/>
<defs>
<linearGradient id="paint0_linear_1727_422" x1="326.5" y1="0" x2="326.5" y2="723" gradientUnits="userSpaceOnUse">
<stop stop-color="#1E97B8"/>
<stop offset="1" stop-color="#5C9E63"/>
</linearGradient>
</defs>
</svg>
