<svg width="522" height="522" viewBox="0 0 522 522" fill="none" xmlns="http://www.w3.org/2000/svg">
<path d="M495.187 376.228C523.668 318.343 529.703 251.96 512.126 189.888C494.548 127.815 454.605 74.4523 400.002 40.0942C345.399 5.73607 280.007 -7.18219 216.441 3.83182C152.875 14.8458 95.6402 49.0116 55.7798 99.7372C15.9194 150.463 -3.74206 214.154 0.588774 278.521C4.91961 342.889 32.9359 403.372 79.2322 448.3C125.528 493.229 186.824 519.42 251.292 521.819C315.761 524.219 378.834 502.657 428.342 461.294L411.904 441.62C367.259 478.92 310.382 498.364 252.246 496.2C194.11 494.036 138.835 470.418 97.0865 429.903C55.3377 389.387 30.0734 334.845 26.1679 276.8C22.2625 218.755 39.9927 161.32 75.9378 115.577C111.883 69.8344 163.495 39.0246 220.818 29.0924C278.14 19.1603 337.109 30.8096 386.349 61.7929C435.588 92.7761 471.608 140.898 487.458 196.873C503.309 252.848 497.868 312.71 472.183 364.91L495.187 376.228Z" fill="url(#paint0_linear_1727_423)"/>
<defs>
<linearGradient id="paint0_linear_1727_423" x1="261" y1="0" x2="261" y2="522" gradientUnits="userSpaceOnUse">
<stop stop-color="#1E97B8"/>
<stop offset="1" stop-color="#5C9E63"/>
</linearGradient>
</defs>
</svg>
