<svg width="1728" height="195" viewBox="0 0 1728 195" fill="none" xmlns="http://www.w3.org/2000/svg">
<mask id="path-1-inside-1_1685_320" fill="white">
<path d="M1502 0C1552.12 0 1593.54 26.0071 1600.09 59.748C1609.24 57.802 1618.94 56.7549 1629 56.7549C1680.16 56.7549 1722.25 83.845 1727.46 118.6H1728V194.998H1629.21C1629.14 194.998 1629.07 194.999 1629 194.999C1628.93 194.999 1628.86 194.998 1628.79 194.998H1551.07C1550.71 195 1550.36 195.003 1550 195.003C1549.64 195.003 1549.29 195 1548.93 194.998H1005.07C1004.71 195 1004.36 195.003 1004 195.003C1003.64 195.003 1003.29 195 1002.93 194.998H693.213C693.142 194.998 693.071 194.999 693 194.999C692.929 194.999 692.858 194.998 692.787 194.998H298.066C297.711 195 297.356 195.003 297 195.003C296.644 195.003 296.289 195 295.934 194.998H100.066C99.7114 195 99.3559 195.003 99 195.003C98.6441 195.003 98.2886 195 97.9336 194.998H0V118.6H2.27051C11.9692 90.3101 51.5935 69.127 99 69.127C102.035 69.127 105.038 69.2139 108.003 69.3838C123.657 45.6087 158.067 29.1006 198 29.1006C237.933 29.1006 272.342 45.609 287.996 69.3838C290.962 69.2138 293.965 69.127 297 69.127C339.012 69.127 374.911 85.7645 389.287 109.24C391.506 109.176 393.744 109.141 396 109.141C404.366 109.141 412.489 109.592 420.249 110.439C436.433 91.1266 470.096 77.8506 509 77.8506C512.535 77.8506 516.027 77.96 519.467 78.1738C535.733 55.5471 569.269 40.0186 608 40.0186C633.614 40.0186 656.957 46.81 674.534 57.9551C680.517 57.167 686.689 56.7549 693 56.7549C715.715 56.7549 736.642 62.0964 753.348 71.0781C771.062 52.3634 801.466 40.0186 836 40.0186C848.644 40.0186 860.735 41.6737 871.852 44.6904C889.491 25.6791 920.141 13.0996 955 13.0996C1007.48 13.0996 1050.42 41.6081 1053.79 77.6533C1065.69 82.067 1076.02 88.015 1084.1 95.0723C1086.46 58.3593 1129.84 29.1006 1183 29.1006C1197.33 29.1006 1210.96 31.228 1223.26 35.0547C1241.39 19.0221 1269.47 8.73145 1301 8.73145C1336.37 8.73145 1367.41 21.6855 1384.92 41.1689C1390.78 40.4137 1396.83 40.0186 1403 40.0186C1406.03 40.0186 1409.03 40.1136 1411.99 40.2998C1427.64 16.516 1462.06 0 1502 0Z"/>
</mask>
<path d="M1502 0C1552.12 0 1593.54 26.0071 1600.09 59.748C1609.24 57.802 1618.94 56.7549 1629 56.7549C1680.16 56.7549 1722.25 83.845 1727.46 118.6H1728V194.998H1629.21C1629.14 194.998 1629.07 194.999 1629 194.999C1628.93 194.999 1628.86 194.998 1628.79 194.998H1551.07C1550.71 195 1550.36 195.003 1550 195.003C1549.64 195.003 1549.29 195 1548.93 194.998H1005.07C1004.71 195 1004.36 195.003 1004 195.003C1003.64 195.003 1003.29 195 1002.93 194.998H693.213C693.142 194.998 693.071 194.999 693 194.999C692.929 194.999 692.858 194.998 692.787 194.998H298.066C297.711 195 297.356 195.003 297 195.003C296.644 195.003 296.289 195 295.934 194.998H100.066C99.7114 195 99.3559 195.003 99 195.003C98.6441 195.003 98.2886 195 97.9336 194.998H0V118.6H2.27051C11.9692 90.3101 51.5935 69.127 99 69.127C102.035 69.127 105.038 69.2139 108.003 69.3838C123.657 45.6087 158.067 29.1006 198 29.1006C237.933 29.1006 272.342 45.609 287.996 69.3838C290.962 69.2138 293.965 69.127 297 69.127C339.012 69.127 374.911 85.7645 389.287 109.24C391.506 109.176 393.744 109.141 396 109.141C404.366 109.141 412.489 109.592 420.249 110.439C436.433 91.1266 470.096 77.8506 509 77.8506C512.535 77.8506 516.027 77.96 519.467 78.1738C535.733 55.5471 569.269 40.0186 608 40.0186C633.614 40.0186 656.957 46.81 674.534 57.9551C680.517 57.167 686.689 56.7549 693 56.7549C715.715 56.7549 736.642 62.0964 753.348 71.0781C771.062 52.3634 801.466 40.0186 836 40.0186C848.644 40.0186 860.735 41.6737 871.852 44.6904C889.491 25.6791 920.141 13.0996 955 13.0996C1007.48 13.0996 1050.42 41.6081 1053.79 77.6533C1065.69 82.067 1076.02 88.015 1084.1 95.0723C1086.46 58.3593 1129.84 29.1006 1183 29.1006C1197.33 29.1006 1210.96 31.228 1223.26 35.0547C1241.39 19.0221 1269.47 8.73145 1301 8.73145C1336.37 8.73145 1367.41 21.6855 1384.92 41.1689C1390.78 40.4137 1396.83 40.0186 1403 40.0186C1406.03 40.0186 1409.03 40.1136 1411.99 40.2998C1427.64 16.516 1462.06 0 1502 0Z" fill="white"/>
<path d="M1600.09 59.748L1590.28 61.6544L1592.22 71.6481L1602.18 69.529L1600.09 59.748ZM1727.46 118.6L1717.57 120.082L1718.84 128.6H1727.46V118.6ZM1728 118.6H1738V108.6H1728V118.6ZM1728 194.998V204.998H1738V194.998H1728ZM1629.21 194.998V184.998H1629.21L1629.2 184.998L1629.21 194.998ZM1628.79 194.998L1628.8 184.998L1628.79 184.998H1628.79V194.998ZM1551.07 194.998V184.998H1551.03L1551 184.998L1551.07 194.998ZM1548.93 194.998L1549 184.998L1548.97 184.998H1548.93V194.998ZM1005.07 194.998V184.998H1005.03L1005 184.998L1005.07 194.998ZM1002.93 194.998L1003 184.998L1002.97 184.998H1002.93V194.998ZM693.213 194.998V184.998H693.206L693.198 184.998L693.213 194.998ZM692.787 194.998L692.802 184.998L692.794 184.998H692.787V194.998ZM298.066 194.998V184.998H298.033L297.999 184.998L298.066 194.998ZM295.934 194.998L296.001 184.998L295.967 184.998H295.934V194.998ZM100.066 194.998V184.998H100.033L99.9993 184.998L100.066 194.998ZM97.9336 194.998L98.0007 184.998L97.9671 184.998H97.9336V194.998ZM0 194.998H-10V204.998H0V194.998ZM0 118.6V108.6H-10V118.6H0ZM2.27051 118.6V128.6H9.4135L11.73 121.843L2.27051 118.6ZM108.003 69.3838L107.431 79.3674L113.185 79.6972L116.355 74.883L108.003 69.3838ZM287.996 69.3838L279.644 74.8831L282.814 79.6972L288.568 79.3674L287.996 69.3838ZM389.287 109.24L380.759 114.463L383.785 119.404L389.577 119.236L389.287 109.24ZM420.249 110.439L419.164 120.38L424.479 120.961L427.914 116.862L420.249 110.439ZM519.467 78.1738L518.846 88.1546L524.361 88.4974L527.586 84.011L519.467 78.1738ZM674.534 57.9551L669.179 66.4005L672.243 68.3432L675.84 67.8694L674.534 57.9551ZM753.348 71.0781L748.612 79.8858L755.351 83.5088L760.61 77.9525L753.348 71.0781ZM871.852 44.6904L869.233 54.3414L875.069 55.9252L879.182 51.4921L871.852 44.6904ZM1053.79 77.6533L1043.83 78.5839L1044.41 84.845L1050.31 87.0301L1053.79 77.6533ZM1084.1 95.0723L1077.52 102.603L1092.78 115.935L1094.08 95.7134L1084.1 95.0723ZM1223.26 35.0547L1220.29 44.6032L1225.66 46.2761L1229.88 42.5458L1223.26 35.0547ZM1384.92 41.1689L1377.48 47.8529L1380.99 51.7578L1386.2 51.087L1384.92 41.1689ZM1411.99 40.2998L1411.36 50.2801L1417.16 50.6442L1420.35 45.7964L1411.99 40.2998ZM1502 0V10C1525.4 10 1546.44 16.0815 1562.15 25.7405C1577.93 35.4427 1587.68 48.2737 1590.28 61.6544L1600.09 59.748L1609.91 57.8417C1605.96 37.4814 1591.72 20.4384 1572.62 8.70185C1553.46 -3.07799 1528.73 -10 1502 -10V0ZM1600.09 59.748L1602.18 69.529C1610.63 67.7302 1619.64 66.7549 1629 66.7549V56.7549V46.7549C1618.25 46.7549 1607.85 47.8738 1598.01 49.9671L1600.09 59.748ZM1629 56.7549V66.7549C1652.88 66.7549 1674.3 73.0913 1690.11 83.0947C1705.99 93.1401 1715.51 106.361 1717.57 120.082L1727.46 118.6L1737.35 117.118C1734.19 96.0834 1720.07 78.3822 1700.81 66.1939C1681.48 53.9636 1656.27 46.7549 1629 46.7549V56.7549ZM1727.46 118.6V128.6H1728V118.6V108.6H1727.46V118.6ZM1728 118.6H1718V194.998H1728H1738V118.6H1728ZM1728 194.998V184.998H1629.21V194.998V204.998H1728V194.998ZM1629.21 194.998L1629.2 184.998C1629.13 184.998 1629.07 184.999 1629.04 184.999C1629 184.999 1629 184.999 1629 184.999V194.999V204.999C1629.07 204.999 1629.14 204.999 1629.17 204.998C1629.19 204.998 1629.2 204.998 1629.21 204.998C1629.22 204.998 1629.22 204.998 1629.22 204.998C1629.23 204.998 1629.23 204.998 1629.23 204.998L1629.21 194.998ZM1629 194.999V184.999C1629 184.999 1629 184.999 1628.96 184.999C1628.93 184.999 1628.87 184.998 1628.8 184.998L1628.79 194.998L1628.77 204.998C1628.77 204.998 1628.77 204.998 1628.78 204.998C1628.78 204.998 1628.78 204.998 1628.79 204.998C1628.8 204.998 1628.81 204.998 1628.83 204.998C1628.86 204.999 1628.93 204.999 1629 204.999V194.999ZM1628.79 194.998V184.998H1551.07V194.998V204.998H1628.79V194.998ZM1551.07 194.998L1551 184.998C1550.64 185.001 1550.32 185.003 1550 185.003V195.003V205.003C1550.4 205.003 1550.79 205 1551.13 204.998L1551.07 194.998ZM1550 195.003V185.003C1549.68 185.003 1549.36 185.001 1549 184.998L1548.93 194.998L1548.87 204.998C1549.21 205 1549.6 205.003 1550 205.003V195.003ZM1548.93 194.998V184.998H1005.07V194.998V204.998H1548.93V194.998ZM1005.07 194.998L1005 184.998C1004.64 185.001 1004.32 185.003 1004 185.003V195.003V205.003C1004.4 205.003 1004.79 205 1005.13 204.998L1005.07 194.998ZM1004 195.003V185.003C1003.68 185.003 1003.36 185.001 1003 184.998L1002.93 194.998L1002.87 204.998C1003.21 205 1003.6 205.003 1004 205.003V195.003ZM1002.93 194.998V184.998H693.213V194.998V204.998H1002.93V194.998ZM693.213 194.998L693.198 184.998C693.132 184.998 693.069 184.999 693.041 184.999C693.004 184.999 692.999 184.999 693 184.999V194.999V204.999C693.072 204.999 693.138 204.999 693.172 204.998C693.192 204.998 693.203 204.998 693.214 204.998C693.219 204.998 693.222 204.998 693.224 204.998C693.227 204.998 693.228 204.998 693.228 204.998L693.213 194.998ZM693 194.999V184.999C693.001 184.999 692.996 184.999 692.959 184.999C692.931 184.999 692.868 184.998 692.802 184.998L692.787 194.998L692.772 204.998C692.772 204.998 692.773 204.998 692.776 204.998C692.778 204.998 692.781 204.998 692.786 204.998C692.797 204.998 692.808 204.998 692.828 204.998C692.862 204.999 692.928 204.999 693 204.999V194.999ZM692.787 194.998V184.998H298.066V194.998V204.998H692.787V194.998ZM298.066 194.998L297.999 184.998C297.635 185.001 297.316 185.003 297 185.003V195.003V205.003C297.396 205.003 297.787 205 298.134 204.998L298.066 194.998ZM297 195.003V185.003C296.684 185.003 296.365 185.001 296.001 184.998L295.934 194.998L295.866 204.998C296.213 205 296.604 205.003 297 205.003V195.003ZM295.934 194.998V184.998H100.066V194.998V204.998H295.934V194.998ZM100.066 194.998L99.9993 184.998C99.6354 185.001 99.3158 185.003 99 185.003V195.003V205.003C99.3961 205.003 99.7873 205 100.133 204.998L100.066 194.998ZM99 195.003V185.003C98.6842 185.003 98.3646 185.001 98.0007 184.998L97.9336 194.998L97.8665 204.998C98.2127 205 98.6039 205.003 99 205.003V195.003ZM97.9336 194.998V184.998H0V194.998V204.998H97.9336V194.998ZM0 194.998H10V118.6H0H-10V194.998H0ZM0 118.6V128.6H2.27051V118.6V108.6H0V118.6ZM2.27051 118.6L11.73 121.843C15.4802 110.904 25.4898 100.22 41.0956 92.1335C56.5699 84.1151 76.7222 79.127 99 79.127V69.127V59.127C73.8713 59.127 50.5082 64.7304 31.894 74.3759C13.4114 83.9533 -1.24051 98.0057 -7.18901 115.357L2.27051 118.6ZM99 69.127V79.127C101.844 79.127 104.656 79.2084 107.431 79.3674L108.003 69.3838L108.575 59.4002C105.419 59.2193 102.226 59.127 99 59.127V69.127ZM108.003 69.3838L116.355 74.883C129.643 54.7009 160.37 39.1006 198 39.1006V29.1006V19.1006C155.763 19.1006 117.67 36.5165 99.6508 63.8846L108.003 69.3838ZM198 29.1006V39.1006C235.629 39.1006 266.356 54.701 279.644 74.8831L287.996 69.3838L296.348 63.8845C278.329 36.5169 240.236 19.1006 198 19.1006V29.1006ZM287.996 69.3838L288.568 79.3674C291.343 79.2084 294.156 79.127 297 79.127V69.127V59.127C293.774 59.127 290.58 59.2193 287.424 59.4002L287.996 69.3838ZM297 69.127V79.127C337.084 79.127 368.886 95.0742 380.759 114.463L389.287 109.24L397.815 104.018C380.936 76.4548 340.94 59.127 297 59.127V69.127ZM389.287 109.24L389.577 119.236C391.706 119.174 393.848 119.141 396 119.141V109.141V99.1406C393.64 99.1406 391.305 99.1774 388.997 99.2444L389.287 109.24ZM396 109.141V119.141C404.008 119.141 411.769 119.573 419.164 120.38L420.249 110.439L421.334 100.499C413.21 99.6115 404.724 99.1406 396 99.1406V109.141ZM420.249 110.439L427.914 116.862C441.521 100.624 471.809 87.8506 509 87.8506V77.8506V67.8506C468.383 67.8506 431.344 81.6294 412.584 104.017L420.249 110.439ZM509 77.8506V87.8506C512.329 87.8506 515.614 87.9536 518.846 88.1546L519.467 78.1738L520.087 68.1931C516.44 67.9664 512.741 67.8506 509 67.8506V77.8506ZM519.467 78.1738L527.586 84.011C541.485 64.6784 571.547 50.0186 608 50.0186V40.0186V30.0186C566.992 30.0186 529.982 46.4158 511.347 72.3366L519.467 78.1738ZM608 40.0186V50.0186C631.918 50.0186 653.364 56.3728 669.179 66.4005L674.534 57.9551L679.889 49.5096C660.549 37.2472 635.311 30.0186 608 30.0186V40.0186ZM674.534 57.9551L675.84 67.8694C681.388 67.1387 687.124 66.7549 693 66.7549V56.7549V46.7549C686.255 46.7549 679.646 47.1954 673.228 48.0407L674.534 57.9551ZM693 56.7549V66.7549C714.192 66.7549 733.473 71.746 748.612 79.8858L753.348 71.0781L758.083 62.2704C739.812 52.4469 717.238 46.7549 693 46.7549V56.7549ZM753.348 71.0781L760.61 77.9525C776.057 61.6336 803.609 50.0186 836 50.0186V40.0186V30.0186C799.324 30.0186 766.068 43.0932 746.085 64.2038L753.348 71.0781ZM836 40.0186V50.0186C847.777 50.0186 858.986 51.5608 869.233 54.3414L871.852 44.6904L874.471 35.0395C862.483 31.7866 849.512 30.0186 836 30.0186V40.0186ZM871.852 44.6904L879.182 51.4921C894.541 34.9383 922.297 23.0996 955 23.0996V13.0996V3.09961C917.986 3.09961 884.441 16.4199 864.521 37.8888L871.852 44.6904ZM955 13.0996V23.0996C979.506 23.0996 1001.41 29.7699 1017.32 40.2185C1033.29 50.7051 1042.51 64.4229 1043.83 78.5839L1053.79 77.6533L1063.74 76.7227C1061.7 54.8385 1047.76 36.2795 1028.3 23.5005C1008.78 10.6835 982.971 3.09961 955 3.09961V13.0996ZM1053.79 77.6533L1050.31 87.0301C1061.28 91.0942 1070.5 96.4706 1077.52 102.603L1084.1 95.0723L1090.68 87.5414C1081.55 79.5593 1070.11 73.0398 1057.26 68.2765L1053.79 77.6533ZM1084.1 95.0723L1094.08 95.7134C1095.01 81.32 1104.05 67.3455 1120.06 56.6292C1136.02 45.9477 1158.17 39.1006 1183 39.1006V29.1006V19.1006C1154.67 19.1006 1128.55 26.8828 1108.94 40.0089C1089.38 53.1002 1075.56 72.1116 1074.12 94.4311L1084.1 95.0723ZM1183 29.1006V39.1006C1196.35 39.1006 1208.97 41.0835 1220.29 44.6032L1223.26 35.0547L1226.23 25.5062C1212.94 21.3725 1198.32 19.1006 1183 19.1006V29.1006ZM1223.26 35.0547L1229.88 42.5458C1245.89 28.3928 1271.48 18.7314 1301 18.7314V8.73145V-1.26855C1267.46 -1.26855 1236.89 9.65146 1216.63 27.5636L1223.26 35.0547ZM1301 8.73145V18.7314C1334.2 18.7314 1362.27 30.9274 1377.48 47.8529L1384.92 41.1689L1392.36 34.485C1372.55 12.4436 1338.55 -1.26855 1301 -1.26855V8.73145ZM1384.92 41.1689L1386.2 51.087C1391.64 50.3865 1397.25 50.0186 1403 50.0186V40.0186V30.0186C1396.4 30.0186 1389.93 30.441 1383.64 31.2509L1384.92 41.1689ZM1403 40.0186V50.0186C1405.82 50.0186 1408.61 50.1071 1411.36 50.2801L1411.99 40.2998L1412.62 30.3195C1409.45 30.1202 1406.24 30.0186 1403 30.0186V40.0186ZM1411.99 40.2998L1420.35 45.7964C1433.63 25.6078 1464.36 10 1502 10V0V-10C1459.75 -10 1421.65 7.42416 1403.64 34.8032L1411.99 40.2998Z" fill="url(#paint0_linear_1685_320)" mask="url(#path-1-inside-1_1685_320)"/>
<defs>
<linearGradient id="paint0_linear_1685_320" x1="0" y1="97.5015" x2="1728" y2="97.5015" gradientUnits="userSpaceOnUse">
<stop stop-color="#51B2AB"/>
<stop offset="1" stop-color="#81CE8A"/>
</linearGradient>
</defs>
</svg>
