<svg width="295" height="295" viewBox="0 0 295 295" fill="none" xmlns="http://www.w3.org/2000/svg">
<path d="M279.847 212.62C295.943 179.906 299.353 142.391 289.42 107.312C279.486 72.2328 256.913 42.0755 226.055 22.6586C195.197 3.24165 158.241 -4.0589 122.318 2.16549C86.3947 8.38989 54.0495 27.6981 31.5231 56.3649C8.99662 85.0317 -2.11477 121.026 0.332736 157.402C2.78024 193.778 18.6132 227.959 44.7768 253.35C70.9404 278.741 105.581 293.542 142.014 294.898C178.447 296.254 214.092 284.069 242.071 260.693L232.781 249.575C207.551 270.654 175.407 281.642 142.553 280.42C109.698 279.197 78.4606 265.849 54.8669 242.953C31.2732 220.056 16.9955 189.232 14.7884 156.429C12.5813 123.626 22.6013 91.1677 42.915 65.3167C63.2288 39.4658 92.3969 22.0541 124.792 16.4411C157.186 10.8281 190.512 17.4116 218.339 34.9213C246.166 52.4309 266.522 79.626 275.479 111.26C284.437 142.893 281.362 176.723 266.847 206.223L279.847 212.62Z" fill="url(#paint0_linear_1727_424)"/>
<defs>
<linearGradient id="paint0_linear_1727_424" x1="147.5" y1="0" x2="147.5" y2="295" gradientUnits="userSpaceOnUse">
<stop stop-color="#1E97B8"/>
<stop offset="1" stop-color="#5C9E63"/>
</linearGradient>
</defs>
</svg>
